<?xml version="1.0" encoding="UTF-8"?>
<svg width="36px" height="36px" viewBox="0 0 36 36" version="1.1" xmlns="http://www.w3.org/2000/svg">
    <title>取色器</title>
    <g id="icon" stroke="none" stroke-width="1" fill="none" fill-rule="evenodd">
        <g id="取色器">
            <rect id="占位" fill="#D8D8D8" opacity="0" x="0" y="0" width="36" height="36" rx="8"></rect>
            <path d="M23.8033009,7.48959236 C24.2902662,7.00262701 25.0797338,7.00262701 25.5666991,7.48959236 L28.5104076,10.4333009 C28.997373,10.9202662 28.997373,11.7097338 28.5104076,12.1966991 L25.9497475,14.7573593 L27.363961,16.1715729 C27.7544853,16.5620972 27.7544853,17.1952621 27.363961,17.5857864 L25.9497475,19 L24.5355339,17.5857864 L15.5355339,26.5857864 C15.1604618,26.9608585 14.6517549,27.1715729 14.1213203,27.1715729 L9.5,27.1715729 C9.22385763,27.1715729 9,26.9477153 9,26.6715729 L9,22.0502525 C9,21.5198179 9.21071436,21.011111 9.58578644,20.636039 L18.5857864,11.636039 L17.1715729,10.2218254 L18.5857864,8.80761184 C18.9763107,8.41708755 19.6094757,8.41708755 20,8.80761184 L21.2426407,10.0502525 L23.8033009,7.48959236 Z M20,13.0502525 L11,22.0502525 L11,25.1715729 L14.1213203,25.1715729 L23.1213203,16.1715729 L20,13.0502525 Z M24.685,9.575 L22.6568542,11.4644661 L24.5355339,13.3431458 L26.425,11.315 L24.685,9.575 Z" id="形状结合" fill="#000000" fill-rule="nonzero"></path>
        </g>
    </g>
</svg>
