<?xml version="1.0" encoding="UTF-8"?>
<svg width="36px" height="36px" viewBox="0 0 36 36" version="1.1" xmlns="http://www.w3.org/2000/svg">
    <title>测量</title>
    <g id="icon" stroke="none" stroke-width="1" fill="none" fill-rule="evenodd">
        <g id="测量">
            <rect id="占位" fill="#D8D8D8" opacity="0" x="0" y="0" width="36" height="36" rx="8"></rect>
            <path d="M23.9497475,7.63603897 C24.3402718,7.24551468 24.9734368,7.24551468 25.363961,7.63603897 L28.363961,10.636039 C28.7544853,11.0265632 28.7544853,11.6597282 28.363961,12.0502525 L12.0502525,28.363961 C11.6597282,28.7544853 11.0265632,28.7544853 10.636039,28.363961 L7.63603897,25.363961 C7.24551468,24.9734368 7.24551468,24.3402718 7.63603897,23.9497475 L23.9497475,7.63603897 Z M24.6568542,9.75735931 L9.75735931,24.6568542 L11.3431458,26.2426407 L13.4644661,24.1213203 L12.0502525,22.7071068 L13.4644661,21.2928932 L14.8786797,22.7071068 L17,20.5857864 L15.5857864,19.1715729 L17,17.7573593 L18.4142136,19.1715729 L20.5355339,17.0502525 L19.1213203,15.636039 L20.5355339,14.2218254 L21.9497475,15.636039 L24.0710678,13.5147186 L22.6568542,12.1005051 L24.0710678,10.6862915 L25.4852814,12.1005051 L26.2426407,11.3431458 L24.6568542,9.75735931 Z" id="形状结合" fill="#000000" fill-rule="nonzero"></path>
        </g>
    </g>
</svg>
