<?xml version="1.0" encoding="UTF-8"?>
<svg width="36px" height="36px" viewBox="0 0 36 36" version="1.1" xmlns="http://www.w3.org/2000/svg">
    <title>局部高亮</title>
    <g id="icon" stroke="none" stroke-width="1" fill="none" fill-rule="evenodd">
        <g id="局部高亮">
            <rect id="占位" fill="#D8D8D8" opacity="0" x="0" y="0" width="36" height="36" rx="8"></rect>
            <path d="M26,9 C26.5522847,9 27,9.44771525 27,10 L27,26 C27,26.5522847 26.5522847,27 26,27 L10,27 C9.44771525,27 9,26.5522847 9,26 L9,10 C9,9.44771525 9.44771525,9 10,9 L26,9 Z M25,11 L11,11 L11,25 L25,25 L25,11 Z M22,14 C22.5522847,14 23,14.4477153 23,15 L23,21 C23,21.5522847 22.5522847,22 22,22 L14,22 C13.4477153,22 13,21.5522847 13,21 L13,15 C13,14.4477153 13.4477153,14 14,14 L22,14 Z M21,16 L15,16 L15,20 L21,20 L21,16 Z M6,12 L8,12 L8,14 L6,14 L6,12 Z M28,12 L30,12 L30,14 L28,14 L28,12 Z M6,22 L8,22 L8,24 L6,24 L6,22 Z M28,22 L30,22 L30,24 L28,24 L28,22 Z" id="形状结合" fill="#000000" fill-rule="nonzero"></path>
        </g>
    </g>
</svg>
