<?xml version="1.0" encoding="UTF-8"?>
<svg width="36px" height="36px" viewBox="0 0 36 36" version="1.1" xmlns="http://www.w3.org/2000/svg">
    <title>图钉序号</title>
    <g id="icon" stroke="none" stroke-width="1" fill="none" fill-rule="evenodd">
        <rect id="占位" fill="#D8D8D8" opacity="0" x="0" y="0" width="36" height="36" rx="8"></rect>
        <path d="M18,5 C24.0751322,5 29,9.92486775 29,16 C29,23.75 18,33 18,33 C18,33 7,23.75 7,16 C7,9.92486775 11.9248678,5 18,5 Z M18,8 C13.581722,8 10,11.581722 10,16 C10,20.9333333 15.2666667,26.7 18,29.3333333 C20.7333333,26.7 26,20.9333333 26,16 C26,11.581722 22.418278,8 18,8 Z" fill="#000000" fill-rule="evenodd"></path>
        <path d="M19.2,11 C19.6418278,11 20,11.3581722 20,11.8 L20,20.2 C20,20.6418278 19.6418278,21 19.2,21 L18.3,21 C17.8581722,21 17.5,20.6418278 17.5,20.2 L17.5,14.2 L16.4,14.85 C16.0189766,15.0751502 15.5278473,14.9488321 15.3026971,14.5678087 L14.95,13.9708287 C14.7248498,13.5898053 14.8511679,13.0986759 15.2321913,12.8735257 L18.1,11.1793555 C18.2238753,11.1061452 18.3651302,11.0675087 18.5090218,11.0675087 L19.2,11 Z" fill="#000000"></path>
    </g>
</svg>
