<?xml version="1.0" encoding="UTF-8"?>
<svg width="36px" height="36px" viewBox="0 0 36 36" version="1.1" xmlns="http://www.w3.org/2000/svg">
    <title>实心圆序号</title>
    <g id="icon" stroke="none" stroke-width="1" fill="none" fill-rule="evenodd">
        <rect id="占位" fill="#D8D8D8" opacity="0" x="0" y="0" width="36" height="36" rx="8"></rect>
        <path d="M18,7 C24.0751322,7 29,11.9248678 29,18 C29,24.0751322 24.0751322,29 18,29 C11.9248678,29 7,24.0751322 7,18 C7,11.9248678 11.9248678,7 18,7 Z M19.2,13 C19.6418278,13 20,13.3581722 20,13.8 L20,22.2 C20,22.6418278 19.6418278,23 19.2,23 L18.3,23 C17.8581722,23 17.5,22.6418278 17.5,22.2 L17.5,16.2 L16.4,16.85 C16.0189766,17.0751502 15.5278473,16.9488321 15.3026971,16.5678087 L14.95,15.9708287 C14.7248498,15.5898053 14.8511679,15.0986759 15.2321913,14.8735257 L18.1,13.1793555 C18.2238753,13.1061452 18.3651302,13.0675087 18.5090218,13.0675087 L19.2,13 Z" fill="#000000" fill-rule="evenodd"></path>
    </g>
</svg>
