<?xml version="1.0" encoding="UTF-8"?>
<svg width="36px" height="36px" viewBox="0 0 36 36" version="1.1" xmlns="http://www.w3.org/2000/svg">
    <title>序号</title>
    <g id="icon" stroke="none" stroke-width="1" fill="none" fill-rule="evenodd">
        <g id="序号">
            <rect id="占位" fill="#D8D8D8" opacity="0" x="0" y="0" width="36" height="36" rx="8"></rect>
            <path d="M18,8 C23.5228475,8 28,12.4771525 28,18 C28,23.5228475 23.5228475,28 18,28 C12.4771525,28 8,23.5228475 8,18 C8,12.4771525 12.4771525,8 18,8 Z M18,10 C13.581722,10 10,13.581722 10,18 C10,22.418278 13.581722,26 18,26 C22.418278,26 26,22.418278 26,18 C26,13.581722 22.418278,10 18,10 Z" id="圆环" fill="#000000" fill-rule="nonzero"></path>
            <path d="M19.75,13 C20.1642136,13 20.5,13.3357864 20.5,13.75 L20.5,22.25 C20.5,22.6642136 20.1642136,23 19.75,23 L18.75,23 C18.3357864,23 18,22.6642136 18,22.25 L18,16.2403124 L16.9160251,16.8726313 C16.5595721,17.0805589 16.1026512,16.9612136 15.8936486,16.6053895 L15.4606327,15.8681923 C15.2507462,15.510863 15.3702661,15.0509997 15.7271141,14.8402974 L18.6202715,13.132173 C18.7359778,13.063846 18.8678508,13.027869 19.0022038,13.027869 L19.75,13 Z" id="数字" fill="#000000" fill-rule="nonzero"></path>
        </g>
    </g>
</svg>
