<?xml version="1.0" encoding="UTF-8"?>
<svg width="36px" height="36px" viewBox="0 0 40 40" version="1.1" xmlns="http://www.w3.org/2000/svg">
    <title>气泡序号</title>
    <g id="icon" stroke="none" stroke-width="1" fill="none" fill-rule="evenodd">
        <rect id="占位" fill="#D8D8D8" opacity="0" x="0" y="0" width="40" height="40" rx="8"></rect>
        <path d="M12,9 L28,9 C30.7614237,9 33,11.2385763 33,14 L33,23 C33,25.7614237 30.7614237,28 28,28 L23,28 L20,33 L17,28 L12,28 C9.23857625,28 7,25.7614237 7,23 L7,14 C7,11.2385763 9.23857625,9 12,9 Z M21.2,13 C21.6418278,13 22,13.3581722 22,13.8 L22,22.2 C22,22.6418278 21.6418278,23 21.2,23 L20.3,23 C19.8581722,23 19.5,22.6418278 19.5,22.2 L19.5,16.2 L18.4,16.85 C18.0189766,17.0751502 17.5278473,16.9488321 17.3026971,16.5678087 L16.95,15.9708287 C16.7248498,15.5898053 16.8511679,15.0986759 17.2321913,14.8735257 L20.1,13.1793555 C20.2238753,13.1061452 20.3651302,13.0675087 20.5090218,13.0675087 L21.2,13 Z" fill="#000000" fill-rule="evenodd"></path>
    </g>
</svg>
